<mxfile host="app.diagrams.net" modified="2020-09-16T03:52:42.259Z" agent="5.0 (Windows NT 10.0; Win64; x64) AppleWebKit/537.36 (KHTML, like Gecko) Chrome/84.0.4147.135 Safari/537.36" etag="x0be2gE91b1HRC5quDit" version="13.7.1" type="github">
  <diagram id="q2D1fs3xVj6Z_FB_mAbO" name="Page-1">
    <mxGraphModel dx="1040" dy="526" grid="1" gridSize="10" guides="1" tooltips="1" connect="1" arrows="1" fold="1" page="1" pageScale="1" pageWidth="827" pageHeight="1169" math="0" shadow="0">
      <root>
        <mxCell id="0" />
        <mxCell id="1" parent="0" />
        <mxCell id="VLqxgfAqh-1ApIod5Qfv-10" style="edgeStyle=orthogonalEdgeStyle;rounded=0;orthogonalLoop=1;jettySize=auto;html=1;exitX=1;exitY=0.5;exitDx=0;exitDy=0;entryX=0;entryY=0.5;entryDx=0;entryDy=0;" edge="1" parent="1" source="VLqxgfAqh-1ApIod5Qfv-1" target="VLqxgfAqh-1ApIod5Qfv-2">
          <mxGeometry relative="1" as="geometry">
            <Array as="points">
              <mxPoint x="190" y="280" />
              <mxPoint x="190" y="115" />
            </Array>
          </mxGeometry>
        </mxCell>
        <mxCell id="VLqxgfAqh-1ApIod5Qfv-18" value="获取qb&amp;amp;kb发文" style="edgeLabel;html=1;align=center;verticalAlign=middle;resizable=0;points=[];" vertex="1" connectable="0" parent="VLqxgfAqh-1ApIod5Qfv-10">
          <mxGeometry x="0.5479" y="-1" relative="1" as="geometry">
            <mxPoint x="8.76" y="-1.02" as="offset" />
          </mxGeometry>
        </mxCell>
        <mxCell id="VLqxgfAqh-1ApIod5Qfv-11" style="edgeStyle=orthogonalEdgeStyle;rounded=0;orthogonalLoop=1;jettySize=auto;html=1;exitX=1;exitY=0.5;exitDx=0;exitDy=0;entryX=0;entryY=0.5;entryDx=0;entryDy=0;" edge="1" parent="1" source="VLqxgfAqh-1ApIod5Qfv-1" target="VLqxgfAqh-1ApIod5Qfv-4">
          <mxGeometry relative="1" as="geometry">
            <Array as="points">
              <mxPoint x="190" y="280" />
              <mxPoint x="190" y="195" />
            </Array>
          </mxGeometry>
        </mxCell>
        <mxCell id="VLqxgfAqh-1ApIod5Qfv-19" value="转换qb链接" style="edgeLabel;html=1;align=center;verticalAlign=middle;resizable=0;points=[];" vertex="1" connectable="0" parent="VLqxgfAqh-1ApIod5Qfv-11">
          <mxGeometry x="0.4245" relative="1" as="geometry">
            <mxPoint as="offset" />
          </mxGeometry>
        </mxCell>
        <mxCell id="VLqxgfAqh-1ApIod5Qfv-12" style="edgeStyle=orthogonalEdgeStyle;rounded=0;orthogonalLoop=1;jettySize=auto;html=1;exitX=1;exitY=0.5;exitDx=0;exitDy=0;entryX=0;entryY=0.5;entryDx=0;entryDy=0;" edge="1" parent="1" source="VLqxgfAqh-1ApIod5Qfv-1" target="VLqxgfAqh-1ApIod5Qfv-5">
          <mxGeometry relative="1" as="geometry" />
        </mxCell>
        <mxCell id="VLqxgfAqh-1ApIod5Qfv-17" value="获取kd发文" style="edgeLabel;html=1;align=center;verticalAlign=middle;resizable=0;points=[];" vertex="1" connectable="0" parent="VLqxgfAqh-1ApIod5Qfv-12">
          <mxGeometry x="0.148" y="1" relative="1" as="geometry">
            <mxPoint as="offset" />
          </mxGeometry>
        </mxCell>
        <mxCell id="VLqxgfAqh-1ApIod5Qfv-13" style="edgeStyle=orthogonalEdgeStyle;rounded=0;orthogonalLoop=1;jettySize=auto;html=1;exitX=1;exitY=0.5;exitDx=0;exitDy=0;entryX=0;entryY=0.5;entryDx=0;entryDy=0;" edge="1" parent="1" source="VLqxgfAqh-1ApIod5Qfv-1" target="VLqxgfAqh-1ApIod5Qfv-6">
          <mxGeometry relative="1" as="geometry">
            <Array as="points">
              <mxPoint x="190" y="280" />
              <mxPoint x="190" y="355" />
            </Array>
          </mxGeometry>
        </mxCell>
        <mxCell id="VLqxgfAqh-1ApIod5Qfv-20" value="获取qb关注态" style="edgeLabel;html=1;align=center;verticalAlign=middle;resizable=0;points=[];" vertex="1" connectable="0" parent="VLqxgfAqh-1ApIod5Qfv-13">
          <mxGeometry x="0.2673" y="1" relative="1" as="geometry">
            <mxPoint x="16.76" y="0.97" as="offset" />
          </mxGeometry>
        </mxCell>
        <mxCell id="VLqxgfAqh-1ApIod5Qfv-15" style="edgeStyle=orthogonalEdgeStyle;rounded=0;orthogonalLoop=1;jettySize=auto;html=1;exitX=1;exitY=0.5;exitDx=0;exitDy=0;entryX=0;entryY=0.25;entryDx=0;entryDy=0;" edge="1" parent="1" source="VLqxgfAqh-1ApIod5Qfv-1" target="VLqxgfAqh-1ApIod5Qfv-8">
          <mxGeometry relative="1" as="geometry">
            <Array as="points">
              <mxPoint x="190" y="280" />
              <mxPoint x="190" y="503" />
            </Array>
          </mxGeometry>
        </mxCell>
        <mxCell id="VLqxgfAqh-1ApIod5Qfv-22" value="获取kd关注态" style="edgeLabel;html=1;align=center;verticalAlign=middle;resizable=0;points=[];" vertex="1" connectable="0" parent="VLqxgfAqh-1ApIod5Qfv-15">
          <mxGeometry x="0.588" y="-1" relative="1" as="geometry">
            <mxPoint x="15.24" y="-3.49" as="offset" />
          </mxGeometry>
        </mxCell>
        <mxCell id="VLqxgfAqh-1ApIod5Qfv-16" style="edgeStyle=orthogonalEdgeStyle;rounded=0;orthogonalLoop=1;jettySize=auto;html=1;exitX=1;exitY=0.5;exitDx=0;exitDy=0;entryX=0;entryY=0.5;entryDx=0;entryDy=0;" edge="1" parent="1" source="VLqxgfAqh-1ApIod5Qfv-1" target="VLqxgfAqh-1ApIod5Qfv-7">
          <mxGeometry relative="1" as="geometry">
            <Array as="points">
              <mxPoint x="190" y="280" />
              <mxPoint x="190" y="435" />
            </Array>
          </mxGeometry>
        </mxCell>
        <mxCell id="VLqxgfAqh-1ApIod5Qfv-21" value="获取kb关注态" style="edgeLabel;html=1;align=center;verticalAlign=middle;resizable=0;points=[];" vertex="1" connectable="0" parent="VLqxgfAqh-1ApIod5Qfv-16">
          <mxGeometry x="0.5674" y="-2" relative="1" as="geometry">
            <mxPoint x="4.34" y="-2.02" as="offset" />
          </mxGeometry>
        </mxCell>
        <mxCell id="VLqxgfAqh-1ApIod5Qfv-1" value="qqom" style="rounded=0;whiteSpace=wrap;html=1;" vertex="1" parent="1">
          <mxGeometry x="40" y="250" width="120" height="60" as="geometry" />
        </mxCell>
        <mxCell id="VLqxgfAqh-1ApIod5Qfv-2" value="MTT.CircleResourceServer.CircleResourceObj/getUserFeedDataByType&lt;br&gt;获取kb和qb的账号发文详情" style="rounded=0;whiteSpace=wrap;html=1;" vertex="1" parent="1">
          <mxGeometry x="287" y="90" width="393" height="50" as="geometry" />
        </mxCell>
        <mxCell id="VLqxgfAqh-1ApIod5Qfv-4" value="MTT.NewsGenQbUrlServer.genQbUrlObj/getQbUrlBatch&lt;br&gt;qb端发文跳转链接转换服务" style="rounded=0;whiteSpace=wrap;html=1;" vertex="1" parent="1">
          <mxGeometry x="287" y="170" width="393" height="50" as="geometry" />
        </mxCell>
        <mxCell id="VLqxgfAqh-1ApIod5Qfv-5" value="MTT.ProtocolExchangeServer.ProxyObj&lt;br&gt;oidb鉴权中转服务" style="rounded=0;whiteSpace=wrap;html=1;" vertex="1" parent="1">
          <mxGeometry x="707" y="255" width="310" height="50" as="geometry" />
        </mxCell>
        <mxCell id="VLqxgfAqh-1ApIod5Qfv-6" value="MTT.CircleRelationServer.CircleRelationObj/isFollowUserBatch&lt;br&gt;qb端获取是否关注服务" style="rounded=0;whiteSpace=wrap;html=1;" vertex="1" parent="1">
          <mxGeometry x="287" y="330" width="393" height="50" as="geometry" />
        </mxCell>
        <mxCell id="VLqxgfAqh-1ApIod5Qfv-7" value="MTT.SmartBoxKuaiBaoProxyServer.KuaiBaoProxyTafObj/getFollowInfo&lt;br&gt;kb端获取是否关注服务" style="rounded=0;whiteSpace=wrap;html=1;" vertex="1" parent="1">
          <mxGeometry x="287" y="410" width="393" height="50" as="geometry" />
        </mxCell>
        <mxCell id="VLqxgfAqh-1ApIod5Qfv-23" style="edgeStyle=orthogonalEdgeStyle;rounded=0;orthogonalLoop=1;jettySize=auto;html=1;exitX=1;exitY=0.5;exitDx=0;exitDy=0;" edge="1" parent="1" source="VLqxgfAqh-1ApIod5Qfv-8" target="VLqxgfAqh-1ApIod5Qfv-5">
          <mxGeometry relative="1" as="geometry" />
        </mxCell>
        <mxCell id="VLqxgfAqh-1ApIod5Qfv-24" value="获取kd关注态和关注&amp;amp;取关操作" style="edgeLabel;html=1;align=center;verticalAlign=middle;resizable=0;points=[];" vertex="1" connectable="0" parent="VLqxgfAqh-1ApIod5Qfv-23">
          <mxGeometry x="-0.2664" y="1" relative="1" as="geometry">
            <mxPoint x="-54.14" y="0.97" as="offset" />
          </mxGeometry>
        </mxCell>
        <mxCell id="VLqxgfAqh-1ApIod5Qfv-8" value="trpc.tsbs.kd_account_detail.Detail/DealDetail&lt;br&gt;kd端获取是否关注、关注动作和取关动作" style="rounded=0;whiteSpace=wrap;html=1;" vertex="1" parent="1">
          <mxGeometry x="287" y="490" width="393" height="50" as="geometry" />
        </mxCell>
      </root>
    </mxGraphModel>
  </diagram>
</mxfile>
